<?xml version="1.0" encoding="UTF-8"?>
<!DOCTYPE svg PUBLIC "-//W3C//DTD SVG 1.1//EN" "http://www.w3.org/Graphics/SVG/1.1/DTD/svg11.dtd">
<!-- Creator: CorelDRAW X7 -->
<svg xmlns="http://www.w3.org/2000/svg" xml:space="preserve" width="3.33333in" height="3.33333in" version="1.1" style="shape-rendering:geometricPrecision; text-rendering:geometricPrecision; image-rendering:optimizeQuality; fill-rule:evenodd; clip-rule:evenodd"
viewBox="0 0 239 239"
 xmlns:xlink="http://www.w3.org/1999/xlink">
 <defs>
  <style type="text/css">
   <![CDATA[
    .fil0 {fill:#22B72E}
    .fil1 {fill:white}
   ]]>
  </style>
 </defs>
 <g id="Layer_x0020_1">
  <metadata id="CorelCorpID_0Corel-Layer"/>
  <g id="_2084451282656">
   <circle class="fil0" cx="120" cy="120" r="120"/>
   <path id="Dribbble_3_" class="fil1" d="M120 48c-40,0 -72,32 -72,72 0,39 32,72 72,72 39,0 72,-33 72,-72 0,-40 -33,-72 -72,-72zm44 37c7,9 11,20 12,32 -8,-2 -16,-2 -23,-2l0 0 0 0c-6,0 -11,0 -17,1 -1,-3 -2,-6 -3,-9 11,-5 22,-12 31,-22zm-44 -21c13,0 25,4 35,12 -8,9 -17,15 -28,20 -7,-15 -14,-25 -19,-31 4,-1 8,-1 12,-1zm-25 6c4,4 12,14 20,30 -17,5 -34,6 -44,6 -1,0 -1,0 -1,0l0 0c-2,0 -3,0 -5,0 4,-16 15,-29 30,-36zm-31 50c0,-1 0,-1 0,-1 1,0 3,0 6,0l0 0c11,0 31,-1 51,-7 1,2 2,5 3,7 -13,5 -24,12 -32,19 -7,7 -12,13 -15,18 -8,-10 -13,-23 -13,-36zm56 56c-13,0 -24,-4 -34,-11 2,-3 7,-10 13,-16 7,-7 17,-14 30,-18 4,12 8,26 11,41 -7,2 -13,4 -20,4zm31 -10c-2,-14 -6,-27 -10,-38 4,0 8,-1 12,-1l0 0 0 0 0 0c6,0 14,1 22,3 -3,15 -12,28 -24,36z"/>
  </g>
 </g>
</svg>
