<?xml version="1.0" encoding="UTF-8"?>
<!DOCTYPE svg PUBLIC "-//W3C//DTD SVG 1.1//EN" "http://www.w3.org/Graphics/SVG/1.1/DTD/svg11.dtd">
<!-- Creator: CorelDRAW X7 -->
<svg xmlns="http://www.w3.org/2000/svg" xml:space="preserve" width="3.33333in" height="3.33333in" version="1.1" style="shape-rendering:geometricPrecision; text-rendering:geometricPrecision; image-rendering:optimizeQuality; fill-rule:evenodd; clip-rule:evenodd"
viewBox="0 0 176 176"
 xmlns:xlink="http://www.w3.org/1999/xlink">
 <defs>
  <style type="text/css">
   <![CDATA[
    .fil0 {fill:#22B72E}
    .fil2 {fill:#22B72E}
    .fil1 {fill:white}
   ]]>
  </style>
 </defs>
 <g id="Layer_x0020_1">
  <metadata id="CorelCorpID_0Corel-Layer"/>
  <g id="_2084451581968">
   <circle class="fil0" cx="88" cy="88" r="88"/>
   <circle class="fil1" cx="88" cy="88" r="52"/>
   <path class="fil2" d="M133 61c-4,-8 -11,-14 -19,-19 -8,-5 -17,-7 -26,-7 -10,0 -19,2 -27,7 -8,5 -14,11 -19,19 -5,8 -7,17 -7,27 0,11 3,22 10,31 7,9 15,15 26,19 1,0 2,0 3,-1 0,0 1,-1 1,-2 0,0 0,-1 0,-3 0,-3 0,-5 0,-7l-2 1c-1,0 -2,0 -4,0 -1,0 -3,0 -4,-1 -2,0 -4,-1 -5,-2 -1,-1 -2,-2 -3,-4l-1 -1c0,-1 -1,-3 -2,-4 -1,-1 -2,-2 -3,-3l0 0c-1,0 -1,0 -1,-1 -1,0 -1,0 -1,-1 0,0 0,0 0,0 1,-1 1,-1 2,-1l2 0c1,1 2,1 3,2 2,1 3,2 4,4 1,2 2,3 3,4 2,1 3,1 5,1 1,0 3,0 4,0 1,0 2,0 3,-1 0,-3 1,-5 3,-7 -2,0 -5,-1 -7,-1 -2,-1 -4,-2 -6,-3 -3,-1 -4,-3 -6,-5 -1,-1 -2,-4 -3,-7 -1,-3 -2,-6 -2,-10 0,-6 2,-10 6,-14 -2,-4 -2,-9 0,-14 1,-1 3,0 6,1 3,1 4,2 6,2 1,1 2,2 3,2 4,-1 8,-1 13,-1 4,0 9,0 13,1l3 -1c1,-1 3,-2 6,-3 2,-1 4,-2 5,-1 2,5 3,10 1,14 4,4 5,8 5,14 0,4 0,7 -1,10 -1,3 -2,6 -4,8 -1,1 -3,3 -5,4 -2,1 -5,2 -7,3 -2,0 -4,1 -7,1 3,2 4,5 4,10l0 14c0,1 0,2 1,2 0,1 1,1 2,1 11,-4 20,-10 26,-19 7,-9 10,-20 10,-31 0,-10 -2,-19 -7,-27z"/>
  </g>
 </g>
</svg>
